<?xml version="1.0" encoding="UTF-8"?><svg id="_Слой_1" xmlns="http://www.w3.org/2000/svg" viewBox="0 0 492.29 463.32"><defs><style>.cls-1{fill:#6662f4;}.cls-2{fill:#64c7cd;}.cls-3{fill:#6763f5;}.cls-4{fill:#26a0ca;}.cls-5{fill:#f9f9fb;}.cls-6{fill:#27a0ca;}.cls-7{fill:#65c9cf;}.cls-8{fill:#64c8ce;}.cls-9{fill:#082c76;}.cls-10{fill:#b798f2;}.cls-11{fill:#062b75;}</style></defs><path class="cls-11" d="M152.5,1.72c.47.12,5.75,1.8,6.99,2.3s1.22,1.96,1.41,2.04c.54.23,1.56-.94,3.33.15.61.37,9.86,8.93,10.47,9.65.88,1.04,1.05,2.14,1.07,3.44l1.94-.99v3.03s1.98-1.01,1.98-1.01c-.71,3.21,2.62,3.73,3.9,5.86,10.51,17.53,4.72,43.74,10.62,60.13,2.15,5.97,9.38,12.35,12.68,18.32s4.67,17.77,12.3,18.7c9.86,1.19,43.82.8,55.05-.5,8.28-.96,8.7-11.82,12.1-18.39,2.94-5.69,9.64-12.11,11.34-15.86,10.19-22.56-1.7-48.13,19.04-73.48,9.23-11.27,36.7-17.87,51.05-13.31,2.08.66,1.93,2.16,2.13,2.25,1.09.51,9.85,1.12,11.62,3.46.22.29,1.01,4.2,3.4,5.54.41.23,1.59-.79,1.72-.69.37.28.48,3.08,1.23,3.76.17.15,1.42-.65,2.37.11,12.85,10.32,18.38,43.93,23.73,59.59.18.54,1.53,4.61,1.67,4.86.71,1.27,4.13-.48,3.09,3.64l1.97-1.01c-.62,4.67,1.06,1.51,2.99,3.43,20.2,20.04,27.71,68.12,34.18,96.01,7.81,33.69,16.48,72.07,24.2,108.07,10.12,47.22,20.63,81.03-10.55,124.82-54.47,76.49-173,57.66-201.86-32.85-8.8-27.6-1.79-55.66-1.21-84l-4.24-3.26c-10.02,1.77-22.26-1.23-32.01-.24-1.72.18-3.85.6-4.97,2.02-2.22,2.84,2.77,65.39.06,72-10.18,44.18-40.52,80.52-85.37,90.72-67.69,15.4-126.92-24.62-140.54-91.86-4.92-24.3,4.54-51.6,9.86-74.79,13.73-59.8,25.12-121.5,41.29-179.73,4.11-6.84,7.52-16.27,12.19-22.56,2.97-3.99,13.14-11.11,15-14.59,5.33-9.95,7.29-32.55,13.26-45.42C103.66,8.06,126.34-4.88,152.5,1.72ZM171.71,67.31c-1.26-14.05-.68-31.95-13.66-40.83-17.98-12.3-39.51-6.01-47.51,14.16-1.63,4.1-5.28,15.18-5.81,19.21-.22,1.67-.1,1.58,1.48,1.48,4.73-.29,10.17-2.57,15.02-2.99,17.34-1.51,34.79,1.71,50.48,8.98ZM388.71,61.31c-4.25-20.69-11.7-43.32-37.49-40.98-25.04,2.28-29.58,26.09-29.5,46.98,21.32-10.02,44.18-11.3,66.99-6ZM148.71,83.32c-16.73-4.09-30.63-4.35-46.68,3.82-26.75,13.62-31.56,34.23-38.03,60.97-8.91,36.83-16.07,74.21-24.28,111.21l17.97-11.52c8.05-4.03,16.32-8.01,25.02-10.48,37.42-10.62,79.9-1.29,108.95,24.58,1.53,1.36,10.61,13.03,12.04,11.42l-6-128.48c-2.12-31.06-18.83-54.14-48.99-61.51ZM375.71,82.32c-28.5-5.59-53.99,3.9-69.81,28.69-11.28,17.67-9.38,35.89-11.23,55.77l-4.95,106.54,17.07-15.42c6.35-3.93,12.23-9.23,18.92-12.58,34.67-17.35,77.75-16.25,111.31,3.19l16.69,10.8c-7.72-35.99-14.97-72.19-23.48-108.01-8.09-34.02-15.52-61.34-54.51-68.99ZM273.71,142.32h-54l6.14,130.36.8,1.2h40.13s.78-1.21.78-1.21l6.15-130.35ZM208.21,348.74c0-51.82-42.01-93.82-93.82-93.82s-93.82,42.01-93.82,93.82,42.01,93.82,93.82,93.82,93.82-42.01,93.82-93.82ZM472.83,348.74c0-51.82-42-93.82-93.82-93.82s-93.82,42-93.82,93.82,42,93.82,93.82,93.82,93.82-42,93.82-93.82Z"/><path class="cls-5" d="M472.83,348.74c0,51.82-42,93.82-93.82,93.82s-93.82-42-93.82-93.82,42-93.82,93.82-93.82,93.82,42,93.82,93.82ZM452.28,348.67c0-40.49-32.82-73.31-73.31-73.31s-73.31,32.82-73.31,73.31,32.82,73.31,73.31,73.31,73.31-32.82,73.31-73.31Z"/><path class="cls-2" d="M388.71,61.31c-22.81-5.3-45.67-4.01-66.99,6-.08-20.89,4.46-44.71,29.5-46.98,25.79-2.34,33.24,20.3,37.49,40.98Z"/><path class="cls-9" d="M452.28,348.67c0,40.49-32.82,73.31-73.31,73.31s-73.31-32.82-73.31-73.31,32.82-73.31,73.31-73.31,73.31,32.82,73.31,73.31ZM357.69,302.28c-18.97,8.63-30.8,27.91-29.9,48.73.9,20.82,14.35,39.01,33.99,45.98,19.64,6.97,41.55,1.31,55.36-14.29,16-18.07,17.18-44.87,2.83-64.27-14.35-19.41-40.31-26.14-62.28-16.14Z"/><path class="cls-7" d="M357.69,302.28c21.97-9.99,47.93-3.26,62.28,16.14,14.35,19.41,13.16,46.2-2.83,64.27-41.34.1-70.34-41.61-59.45-80.42Z"/><path class="cls-4" d="M357.69,302.28c-10.89,38.81,18.1,80.52,59.45,80.42-13.82,15.6-35.72,21.26-55.36,14.29-19.64-6.97-33.09-25.16-33.99-45.98-.9-20.82,10.93-40.1,29.9-48.73Z"/><path class="cls-10" d="M148.71,83.32c30.16,7.37,46.87,30.45,48.99,61.51l6,128.48c-1.43,1.61-10.52-10.06-12.04-11.42-29.05-25.86-71.53-35.2-108.95-24.58-2-23.09-1.97-45.6,4.5-68,10.02-34.65,32.59-64.92,61.5-86Z"/><path class="cls-10" d="M375.71,82.32c38.99,7.65,46.42,34.96,54.51,68.99,8.52,35.81,15.76,72.02,23.48,108.01l-16.69-10.8c-33.55-19.45-76.64-20.55-111.31-3.19-15.01-59.16,3.39-123.47,50-163Z"/><polygon class="cls-1" points="273.71 142.32 267.56 272.67 266.78 273.88 226.65 273.88 225.85 272.68 219.71 142.32 273.71 142.32"/><path class="cls-3" d="M375.71,82.32c-46.61,39.53-65.01,103.84-50,163-6.69,3.35-12.57,8.65-18.92,12.58l-17.07,15.42,4.95-106.54c1.85-19.87-.04-38.09,11.23-55.77,15.82-24.79,41.3-34.28,69.81-28.69Z"/><path class="cls-3" d="M148.71,83.32c-28.91,21.08-51.48,51.35-61.5,86-6.48,22.4-6.5,44.91-4.5,68-8.7,2.47-16.97,6.44-25.02,10.48l-17.97,11.52c8.21-36.99,15.37-74.37,24.28-111.21,6.47-26.74,11.28-47.34,38.03-60.97,16.05-8.17,29.95-7.91,46.68-3.82Z"/><path class="cls-5" d="M208.21,348.74c0,51.82-42.01,93.82-93.82,93.82s-93.82-42.01-93.82-93.82,42.01-93.82,93.82-93.82,93.82,42.01,93.82,93.82ZM187.7,348.68c0-40.48-32.81-73.29-73.29-73.29s-73.29,32.81-73.29,73.29,32.81,73.29,73.29,73.29,73.29-32.81,73.29-73.29Z"/><path class="cls-8" d="M171.71,67.31c-15.69-7.27-33.14-10.49-50.48-8.98-4.86.42-10.29,2.7-15.02,2.99-1.58.1-1.7.19-1.48-1.48.53-4.02,4.18-15.11,5.81-19.21,8-20.17,29.54-26.46,47.51-14.16,12.98,8.88,12.4,26.78,13.66,40.83Z"/><path class="cls-9" d="M187.7,348.68c0,40.48-32.81,73.29-73.29,73.29s-73.29-32.81-73.29-73.29,32.81-73.29,73.29-73.29,73.29,32.81,73.29,73.29ZM91.56,303.02c-18.42,9.18-29.54,28.5-28.22,49.03,1.32,20.53,14.83,38.28,34.27,45.02s41.03,1.17,54.78-14.14c16.4-18.26,17.5-45.59,2.64-65.12s-41.5-25.73-63.47-14.79Z"/><path class="cls-7" d="M91.56,303.02c21.96-10.94,48.6-4.73,63.47,14.79s13.75,46.86-2.64,65.12c-41.58-.19-70.51-40.48-60.83-79.91Z"/><path class="cls-6" d="M91.56,303.02c-9.68,39.43,19.25,79.72,60.83,79.91-13.75,15.31-35.34,20.88-54.78,14.14s-32.95-24.48-34.27-45.02c-1.32-20.53,9.8-39.86,28.22-49.03Z"/></svg>