<?xml version="1.0" encoding="UTF-8"?><svg id="_Слой_1" xmlns="http://www.w3.org/2000/svg" viewBox="0 0 337.07 607.18"><defs><style>.cls-1{fill:#dba700;}.cls-2{fill:#00162b;}</style></defs><path class="cls-2" d="M267.06,565.04c-.13-.49-2.03-2.27-2.82-2.39l-192.69.03c-1.1.17-1.69.99-2.29,1.82-3.39,4.61,1.24,28.69-1.09,34.96-4.19,11.29-21.52,9.74-24.23-1.65-1.96-8.26,1.99-33.99-2.7-38.29-1.37-1.26-4.16-.96-6.26-2.05-17.04-8.8-31.15-23.78-34.81-43.17L0,51.45C4.64,25.1,26.54,4.72,52.08,1.47c75.52,3.47,155.36-4.78,230.39.14,26.56,1.74,54.87,29.5,52.36,56.69,4.52,142.4.43,290.79,2.24,435.62-.76,21.36-2.29,30.13-15.79,46.74-.22.27.76,1.49.51,1.76-4.15,4.56-13.98,11.48-19.53,14.24-2.9,1.44-6.95,1.02-7.94,4.04l-2.02-.83c-3.66,9.17,2.23,38.39-3.78,44.41-3.56,3.56-13.55,3.7-17.47.34-.54-.46-3.99-4.86-3.99-5.18,0-7.59,1.47-28.76,0-34.4ZM310.51,223.79l.57-161.71c-.36-16.98-13.25-31.88-29.85-35.35-70.92,1.08-147.17-5.57-217.79-1.21-10.23.63-14.22,2.22-22.58,7.64-.35.23-1.41-.67-1.71-.43-8.25,6.52-14.71,18.2-15.22,28.87,2.95,51.19-3.78,106.49-.01,157.19.16,2.2.57,4.17,1.28,6.23l285.32-1.23ZM308.91,249.13H25.11l-1.2,6.25.77,250.76,5.07,15.88,2.2-1.12c0,1.51,1.68,6.03,2.56,6.64.26.18,1.54-.86,1.83-.62,17.71,14.93,28.02,10.31,49.5,10.41,64.42.3,128.84-.15,193.26.13,17.55-2.74,31.4-17.11,32.05-35.5l-.03-247.27-2.19-5.57Z"/><path class="cls-1" d="M110.66,378.31c-5.54,9.06-20.73,5.07-22.38-7.16-1.17-8.64-1.24-38.25.17-46.64.75-4.43,3.05-8.25,7.17-10.15,1.35-.62,3.17.04,3.49-.1.76-.32.38-1.84.6-1.99.41-.29,8.38,3.18,9.2,3.84,1.81,1.47,4.06,5.85,4.42,8.2,1.38,8.92,1.04,36.36.08,45.8-.3,2.93-1.22,5.69-2.75,8.2Z"/><path class="cls-1" d="M107.4,91.32c3.05,1.2,5.66,9.52,5.99,12.78.92,9.17,1.36,37.28-.04,45.79-2.24,13.57-23,14.29-25.04-2.37-1.18-9.67-1.25-35.95.16-45.44.86-5.77,3.33-10.31,9.53-11.14,1.59-.21,8.18-.11,9.39.37Z"/></svg>