<?xml version="1.0" encoding="UTF-8"?>
<svg id="_Слой_1" data-name="Слой_1" xmlns="http://www.w3.org/2000/svg" version="1.1" viewBox="0 0 481 544">
  <!-- Generator: Adobe Illustrator 30.0.0, SVG Export Plug-In . SVG Version: 2.1.1 Build 123)  -->
  <defs>
    <style>
      .st0 {
        fill: #001a3f;
      }

      .st1 {
        fill: #dba700;
      }
    </style>
  </defs>
  <path class="st1" d="M92.76,89.19c4.99-.94,9.65,2.06,10.26,7.29s.84,28.02-.23,32.8c-1.6,7.18-13.32,7.84-16.03,1.46-1.25-2.93-1.37-30.91-.69-35.18.53-3.37,3.41-5.75,6.69-6.37Z"/>
  <g>
    <path class="st0" d="M201,261c6.99-.04,14.01.03,21,0,70.68-1.4,146.21,5.27,216.54,1.05,2.52-.15,5.01-.52,7.46-1.05,7.15,4.1,6.66,11.6,6,19-3.95,44.05-26,87.49-61.67,113.83-4.72,3.48-23.62,13.74-25.06,16.94-.56,1.23-.98,3.45-1.15,4.85-1.91,15.68-1.44,50.74-.15,66.92.23,2.87.91,5.7,1.49,8.51,2.95,4.06,43.39.6,50.6,2.4,10.75,5.59,6.05,18.35-5.51,17.59H125.45c-10.68.8-13.61-14.94-3.48-17.57s29.41.23,40.57-.43c3.17-.19,6.2-1.5,9.46-1.04-.46-3.26.85-6.29,1.04-9.46,1-16.75,2-52.94-.49-68.59-.23-1.48-.96-4.61-1.84-5.68-1.85-2.26-15.28-8.85-19.03-11.46-32.03-22.3-54-56.66-62.22-94.78-1.49-6.9-1.69-14.1-3.57-20.93-15.33-3.47-34.46,1.19-49.34-1.16-8.26-1.3-8.42-11.99-9.42-18.58C16.37,190.11,11.02,117.82,1.03,46.43l-1.03-2.43v-9c2.65-3.79,5.51-6.15,10.46-6.04l146.28.8,3.27,2.73,3.17,226.83c.79,2.04,6.97,2.53,9.28,2.72,9.61.76,19.24-.98,28.54-1.04ZM26.79,47.29l-6.35,1.64-.43,5.55c10.09,64.59,14.03,130.33,24.14,194.88,1.72,10.98.47,11.88,12.31,12.69,21.48,1.46,56.76,1.69,78.08,0,2.87-.23,5.7-.91,8.51-1.49,1.26-.91,1.86-8.01,2-10,4.3-62.23-3.35-129.35,0-192.09l-1.5-9.5c-.78-1.07-7.22-1.85-9.01-1.99-34.49-2.75-72.87,1.89-107.75.33ZM105.99,281c.3,43.21,28.95,84.52,65.09,106.42,4.92,2.98,17.89,7.34,19.47,12.53l.46,83.54,1.94,8.06,8.51,1.49c43.84-2.7,91.71,3.46,135.07,0,2.87-.23,5.7-.91,8.51-1.49l1.99-9.01.17-82.83c1.15-3.94,18.09-11.38,22.71-14.29,29.99-18.93,61.84-62.24,62.16-98.9.06-7.52-3.48-5.18-9.54-6.56H116.45s-10.46,1.03-10.46,1.03Z"/>
    <path class="st1" d="M452,280c.66-7.4,1.15-14.9-6-19,17.64-3.77,21.18-26.73,6.33-35.83-3.83-2.34-9.28-2.91-13.78-3.22-64.16-4.32-133.25,3.23-197.93.17-20.8,1.05-23.73,22.53-18.62,38.88-6.99.03-14.01-.04-21,0,1.67-10.69-.21-21.85,3.27-32.23,3.78-11.24,15.02-20.83,26.47-23.53l218.75-.23c32.01,6,41.66,47.52,15.42,67.4-4.02,3.05-8.85,4.64-12.91,7.59Z"/>
  </g>
</svg>