<?xml version="1.0" encoding="UTF-8"?>
<svg id="_Слой_1" xmlns="http://www.w3.org/2000/svg" version="1.1" viewBox="0 0 640 640">
  <!-- Generator: Adobe Illustrator 30.0.0, SVG Export Plug-In . SVG Version: 2.1.1 Build 123)  -->
  <defs>
    <style>
      .st0 {
        fill: #ffe600;
      }
    </style>
  </defs>
  <path d="M517.76,235.45c.17.05.19,1.09.46,1.19,6.09,2.24,13.01,5.83,17,11.07,3.18-2.21,1.95,7.22,5.74,4.3-.29,2.87,2.06,4.17,3.24,6.3,11.36,20.43,6.63,40.29,8.25,62.74,1.26,1.88,4.29.87,5.07,1.19,13.73,5.68,26.24,9.79,35.65,25.59l1.79-.82,3.74,8.75c17.47,30.89,6.87,68.68-23.42,88.04-3.72,2.37-11.49,4.57-12.81,8.2l-.05,103.13c-2.61,10.69-12.6,9.54-21.42,8.88l-.07,32.41c-1.85,9.66-5.18,11.1-14.5,11.98-9.07.85-30.98,1.01-39.88,0-6.49-.73-8.93-1.45-11.74-7.71-3.91-8.72-4.52-26.53-8.94-34.06-1.92-3.27-6.75-2.53-10.34-2.66-84.84-3.11-171.94,2.04-256.87.48l-3.69,1.26c-4.12,10.36-4.68,25.79-9.19,35.58-3.25,7.04-6.33,6.51-13.34,7.1-9.14.77-31.82,1.12-40.55,0-19.52-2.53-8.31-28.73-11.81-41.9-4.43-6.86-30.02,4.08-32.47-10.4l-.13-105.11c-1.57-.82-3.57-2.83-4.75-3.59-3.22-2.06-7.14-2.65-11.6-5.99-45.11-33.65-34-99.89,17.39-118.12,1.85-.66,7.47-.51,8.63-1.93,1.78-15.82-1.08-31.68,2.34-47.37,5.61-25.75,28.17-41.42,52.96-41.97l346.12-.03c6.14,1.12,13.34,1.62,19.22,3.49l-.03-.02ZM473,393c.64-23.28,10.63-48.72,29.61-60.86,5.25-3.36,11.07-6.07,16.91-8.23,1.72-.64,3.73-1.71,3.97-1.77,2.09-.53,3.92,2.69,5.81-3.35-.23-24.86,6.82-57.15-26.19-64.13l-360.64.57c-2.55,2.33-7.77,3.42-11.13,6.13-5.41,4.37-10.1,14.24-10.91,20.67-1.44,11.43,1.23,26.18.04,37.99.48,4.06,4.82,1.79,6.04,2.11.27.07,3.21,1.44,4.72,2.03,29.11,11.38,42.88,34.19,44.38,63.94.09,1.78,1.38,3.97,1.39,4.89,0,.18-1.1,1.57-1.07,3.38.16,10.87.03,21.75.07,32.62-.68,3.42-.82,20.45.56,22.97.44.8,1,1.45,1.93,1.65,44.49.36,89.01-.64,133.5-.61,8.27,0,17.1-.99,25-1,.71,0,2.4,1.6,4.02,1.6,43.16-.03,86.32-.24,129.48-.04l2.5-1.01c1.85-2.18.96-18.13.99-22.55.1-12.1-1.32-25.43-1-37h.02ZM540,499c.14-15.71-1.47-43.44.55-57.47.29-2.03.98-3.9,1.67-5.82,8.36-7.94,18.82-6.98,27.77-15.22,18.02-16.58,18.85-39.36,6.33-59.26-.9-1.44-1.51-2.83-1.64-2.99-1.89-2.41-9.54-8.52-11.93-9.92-26-15.19-61.86,2.4-66.23,32.75-3.52,24.4,3.13,57.75.06,82.9-.71,5.8-1.67,7.11-6.63,10.48l-330.5.09c-4.72-2.58-5.95-7.08-6.31-12.1-1.59-22.13,4.43-75.72-3.26-92.81-12.6-28-45.76-34.18-69.09-16.57-25.65,19.37-18.2,62.01,9.74,74.63,12.18,5.5,17.91.78,18.9,18.81.9,16.4.44,35.86.57,52.5.06,7.65.06,15.35,0,23-.04,4.61-3.32,19.14,2,20.63l427.5-.61c2.56-2.8.49-15.06.49-19.02,0-7.99-.07-16.01,0-24h.01ZM170.77,565.2c-1.67-1.69-23.53-1.1-27.32-.28-2.09,2.04-2.13,17.4-.94,20.11.49,1.11,1.42,1.34,2.48,1.6,1.6.4,19.68.06,20.53-.57,1.98-1.47,5.79-14.88,5.94-17.92.05-1.06.13-2.12-.68-2.94h-.01ZM518,586v-19.5c0-2.58-6.83-2.14-8.5-2.21-2.28-.09-17.13-.22-18.01.14-.98.39-2.05,1.08-2.25,2.18-.26,1.45,4.17,18.46,5.22,19.49l23.55-.1h-.01Z"/>
  <path class="st0" d="M243.65,97.78c-.05.18-1.09.21-1.21.46-1.35,2.8-1.58,4.69-5.31,6.4l-27.09,14.42-.05,2.93,213.48.5,5.5-1.99c-5.9-5.87-14.05-7.8-21.19-11.81-1.27-.71-6.12-3.42-6.89-3.98-11.01-8.06-6.62-22.88,7.53-20.64,5.22.83,10.89,5.56,14.81,7.54,18.28,9.23,35.73,18.21,52.01,27.77,4.87,2.86,10.43,3.31,13.78,10.1,1.94,3.93-1.19,10.62-4.43,13.1-7.79,5.97-17.9,9.38-25.88,14.46-11.73,7.4-28.14,16.91-40.42,23.36-.57.3-3.34,3.1-3.85,3.3-.86.34-9.12,1.32-9.97,1.15-.57-.12-.37-1.38-.98-1.62-.41-.17-1.63.5-2.76-.19-2.49-1.53-1.77-2.97-2.11-3.81-.11-.27-1.33-.28-1.4-.7-1.04-6.21.63-10.53,5.41-14.37,6.61-5.32,17.74-10.25,24.6-14.74.42-.28,3.74-.43,4.3-3.36l-1.02-1.73-219.95-.22-3.55.94c-.83,4.88,5.18,4.16,6.7,6.92l13.52,7.65c2.27.47,7.49,3.73,9.77,5.87,9.07,8.5,3.28,20.82-9.01,19.07-4.21-.6-6.55-3.69-9.26-5.15-11.57-6.2-26.02-14.1-38.2-21.37-7.44-4.44-20.39-10.62-26.48-15.59-6.77-5.53-6.33-14.48.78-19.33,11.78-8.04,28.28-15.07,40.42-21.4,8.57-4.47,30.09-17.86,38.21-17.66,6.9.17,12.06,7.1,10.18,13.73h.01Z"/>
  <path class="st0" d="M540,499c-.07,7.99,0,16.01,0,24l-430-1c.06-7.65.06-15.35,0-23h430Z"/>
  <path class="st0" d="M177,393l14.41-4.45c29.23-1.27,63.66-4.35,92.69-1.92,16.15,1.35,21.68,2.87,32.92,11.81,2.82,2.24,7.77,2.76,6.98,6.55,12.31-12.32,24.22-16.91,41.5-18.44,28.81-2.56,63.5.77,92.54,1.9l14.95,4.55c-.32,11.57,1.1,24.9,1,37-2.95-7.44-7.55-12.36-13.24-17.69-2.01-.72-6.9-.88-8.24-3.13l-98.04,1.06c-1.02,1.36-4.89,3.26-6.25,3.04-8.21,7.7-11.41,11.28-11.92,22.52-.23,5.18-.28,11.08.68,16.19-7.9,0-16.73,1-25,1,1.07-1.16,1.36-1.99,1.6-3.5,2.85-17.73-3.85-37.45-24.08-40.02l-92.02-.33c-.9,2.43-3.37,1.24-6.18,2.65-4.74,2.39-10.87,7.77-12.9,11.45-.17.31-2.35,5.4-2.42,5.75-.04-10.86.09-21.74-.07-32.62-.03-1.81,1.07-3.21,1.07-3.38h.02Z"/>
  <path class="st0" d="M114.67,377.33c.2.1,3.03,3.11,3.15,3.3,9.49,15.34-15.32,25.58-19.23,8.48-2.13-9.35,8.37-15.62,16.08-11.79h0Z"/>
  <path class="st0" d="M549.7,393.72c-.87,1.1-5.64,3.96-7.26,4.22-16.61,2.69-16.57-24.25.02-21.41,7.48,1.28,12.06,11.08,7.24,17.19Z"/>
</svg>