<?xml version="1.0" encoding="UTF-8"?>
<svg id="_Слой_1" data-name="Слой_1" xmlns="http://www.w3.org/2000/svg" version="1.1" viewBox="0 0 45.01 30.07">
  <!-- Generator: Adobe Illustrator 30.0.0, SVG Export Plug-In . SVG Version: 2.1.1 Build 123)  -->
  <defs>
    <style>
      .st0 {
        fill: #fff;
      }

      .st1 {
        fill: #d39c00;
      }
    </style>
  </defs>
  <path class="st0" d="M41.59,0c1.77.33,3.09,1.55,3.32,3.39v19.98c-.07,1.97-1.75,3.67-3.76,3.55.02,1.49.28,2.91-1.62,3.07-1.05.09-3.35.11-4.38-.01-.52-.06-1.46-.61-1.46-1.17v-1.8l-22.46-.09v1.88c0,.57-.94,1.11-1.46,1.17-1.03.12-3.42.11-4.47.01-1.8-.16-1.52-1.63-1.57-2.99-.1-.14-.56-.06-.77-.1-1.53-.32-2.67-1.64-2.96-3.13V3.24C.31,1.56,1.7.19,3.42,0h38.17ZM29.92,1.49H3.47c-.85,0-1.99,1.18-1.97,2.06v19.73c-.07,1.08,1.11,2.23,2.15,2.23h26.28V1.49ZM31.54,1.49l-.13.13v23.75l.13.13h9.74c1.04,0,2.21-1.16,2.15-2.23V3.55c.01-.88-1.13-2.06-1.98-2.06h-9.91ZM9.74,26.91h-4.47v1.58h4.47v-1.58ZM39.66,26.91h-4.47v1.58h4.47v-1.58Z"/>
  <path class="st0" d="M4.42,22.58c-.3-.3-.6-.9-.65-1.33.28-5-.37-10.4,0-15.34.09-1.26.92-2,2.15-2.15h19.57c1.36.12,2.13.99,2.24,2.32.37,4.74-.29,9.95,0,14.73-.11,1.44-.85,2.29-2.33,2.41H6.09c-.58-.02-1.25-.23-1.68-.65ZM5.77,5.28c-.33.09-.52.38-.51.72l.04,15.31.49.39,19.98-.03c.33-.17.46-.49.46-.85l-.08-15.09-.44-.44-19.95-.02Z"/>
  <path class="st0" d="M34.2,3.79c1.84-.31,4.38.19,6.3-.02.8.1,1.36.65,1.45,1.45.08.71.07,2.34,0,3.07-.08.77-.58,1.35-1.36,1.45-2.01-.13-4.25.18-6.23,0-.6-.05-1.25-.48-1.35-1.1s-.09-3.02,0-3.67c.08-.59.61-1.07,1.2-1.17ZM40.45,5.26h-6.05v2.98h6.05v-2.98Z"/>
  <path class="st1" d="M39.54,18.09c2.8,2.75-1.4,7.04-4.22,4.26s1.41-7.03,4.22-4.26ZM37,18.78c-1.39.29-1.47,2.68.18,2.94,2.28.36,2.41-3.47-.18-2.94Z"/>
  <path class="st0" d="M40.25,12.51c-.08.1-.32.19-.45.2-1.44.18-3.25-.14-4.74,0-.87-.14-.86-1.36.35-1.48.92-.09,3.31-.11,4.2,0,.67.09,1.11.73.64,1.28Z"/>
  <path class="st0" d="M34.9,14.31h4.98c.74.1.74,1.26,0,1.38-1.44.23-3.41-.16-4.91,0-.65-.24-.68-1.07-.07-1.38Z"/>
</svg>