<?xml version="1.0" encoding="UTF-8"?>
<svg id="_Слой_1" xmlns="http://www.w3.org/2000/svg" version="1.1" viewBox="0 0 359 543">
  <!-- Generator: Adobe Illustrator 30.0.0, SVG Export Plug-In . SVG Version: 2.1.1 Build 123)  -->
  <defs>
    <style>
      .st0 {
        fill: #000101;
      }

      .st1 {
        fill: #ffe600;
      }
    </style>
  </defs>
  <path class="st1" d="M153,430l5.76-.37,85.49-80.32c14.08-1.89,29.02,6.85,20.19,20.63-10.57,16.5-54.05,53.97-70.4,70.85-9.2,9.51-53.78,62.3-63.57,64.18-17.02,3.78-23.43-8.06-30.49-20.98l-47.29-62.75-42.19-57.17c3.36-12.48,14.97-17.14,26.92-13.8l60.58,72.73c3.83-.05,9.73,12.34,16.99,9.99-1.22,4.79,11.92,20.31,15.44,20.05l22.56-23.05h0Z"/>
  <path class="st0" d="M115,433l37.51-265.98c19.62-34.18,108.65-27.18,130.99-1.02,7.81,9.15,62.84,115.78,66.7,128.38.57,1.87.45,3.72.79,5.62l-25.05-1.72-60.47-135.24c-18.47-17.16-91.64-22.14-98.47,7.47l-14.01,259.5-22.56,23.05c-3.52.27-16.66-15.25-15.44-20.05h0Z"/>
</svg>