<?xml version="1.0" encoding="UTF-8"?>
<svg id="_Слой_1" xmlns="http://www.w3.org/2000/svg" version="1.1" viewBox="0 0 595 460">
  <!-- Generator: Adobe Illustrator 30.0.0, SVG Export Plug-In . SVG Version: 2.1.1 Build 123)  -->
  <defs>
    <style>
      .st0 {
        fill: #ffe600;
      }
    </style>
  </defs>
  <path d="M177,437c-2.64-2.91-6.94-16.78-7-21-.08-5.37,1.42-13.6,2.46-19.04,10.2-53.29,29.22-107.34,40.28-160.72-.2-17.57-5.44-36.7-9.43-54.06-9.08-39.6-21.73-79.56-29.83-119.17-1.02-4.98-1.47-18.01-3.49-21.01l7-18c7.52-2.77,11.04-9.87,18.33-14.17,18.29-10.78,35.59-8.12,52.98,2.36,16.65,10.03,33.62,23.95,49.96,35.04,70.54,47.86,140.66,96.45,210.2,145.8,22.37,19.57,22.31,54.24,0,73.94l-266.6,185.4c-24.5,11.59-43.51,4.91-61.4-13.38-.97-.99-3.01-1.48-3.48-2h.02ZM220.67,19.38c-22.38.05-35.45,18.28-31.41,39.86l41.74,166.26-.25,10.74-41.74,166.26c-4.99,29.22,25.15,48.15,49.52,31.52,86.83-61.61,175.51-120.81,261.49-183.51,10.08-10.94,10.08-30.1,0-41.04-88.49-63.7-178.23-126.08-268.04-187.96-3.31-1.27-7.83-2.14-11.32-2.13h.01Z"/>
  <path class="st0" d="M177,24l-7,18c-1.45-2.16-21.86-16.24-25.33-18.17-25.24-13.98-53.85,6.71-47.41,35.41l41.29,163.71.49,9.6-42.08,172.91c-2.17,28.75,24.29,43.22,48.96,28.96,8.1-4.68,17.56-11.88,24.08-18.42.06,4.22,4.36,18.09,7,21-10.33,1.69-18.28,11.21-27.68,15.82-39.17,19.19-76.36-14.08-68.86-55.86,9.89-55.04,31.24-111.17,41.15-166.63-3.84-16.29-6.59-32.88-10.3-49.15-8.83-38.74-22.93-79.61-29.85-118.15-7.48-41.63,31-74.18,69.22-54.22,8.67,4.53,16.6,13.68,26.31,15.19h.01Z"/>
</svg>