<?xml version="1.0" encoding="UTF-8"?>
<svg id="_Слой_1" xmlns="http://www.w3.org/2000/svg" version="1.1" viewBox="0 0 481 544">
  <!-- Generator: Adobe Illustrator 30.0.0, SVG Export Plug-In . SVG Version: 2.1.1 Build 123)  -->
  <defs>
    <style>
      .st0 {
        fill: #ffe600;
      }
    </style>
  </defs>
  <path d="M0,32c4.02-.73,6-2.64,10.46-3.04,45.24-3.99,96.24,3.11,142.09,0,5.28-.17,9.68,4.25,9.5,9.5,2.67,69.87-3.71,142.56-.1,212.1.18,3.54,1.34,6.88,1.05,10.45,9.15,1.07,18.31,1.17,27.55,1.05,3.52-.05,6.66-1.02,10.45-1.05,6.65-.05,13.35-.04,20,0,74.85.4,150.09,1.78,225,1,3.22.68,2.94,2.1,4,4h-2c-.43,3.16.62,5.73,4,6,.19,1.15,1.01,5.7,1,6-.08,3.26-4.27,21.23-5.31,26.19-9.59,45.42-41,84.65-82.45,105.05-.18,2.13-.89,4.29-1.11,6.4-1.82,17.8-1.26,48.68-.17,66.91.19,3.17,1.5,6.2,1.04,9.46l51.06,1.44c8.36,3.9,7.99,14.53-.98,17.12l-289.62.48c-10.68.79-13.61-14.95-3.48-17.58s29.41.23,40.57-.43c3.17-.19,6.2-1.5,9.46-1.04-.46-3.26.85-6.29,1.04-9.46,1.1-18.56,1.24-45.6,0-64.08-.18-2.73-.49-5.97-1.52-8.5-1.36-3.32-15.75-10.3-19.83-13.15-26-18.1-47.79-47.03-57.72-77.28-4.03-12.27-4.98-25.18-8.44-37.56-4.36-4.23-40.31-.66-48.97-2.03-9.48-1.5-9.35-18.75-10.43-26.57C17.31,189.96,11.46,126.06,2.89,62.61l-2.89-5.61v-2c2.72-.7,1.19-6.9,0-9v-14ZM141,48c-1.64-.52-4.66-.91-6.46-1.04-29.22-2.1-75.81-2.02-105.08,0-3.17.22-6.2,1.48-9.46,1.04l26.06,212.94c3.54-.14,6.88.9,10.4,1.11,22.38,1.32,55.87,1.59,78.09,0,1.79-.13,4.82-.52,6.46-1.04-1.38,3.91,3.33,3.81,5.06,2.56,1.61-1.15,2.23-7.14-2.06-5.56,1.66-68.76,1.66-138.24,0-207,3.91,1.38,3.81-3.33,2.56-5.06-1.15-1.61-7.14-2.23-5.56,2.06h0ZM192,492l153.05-.46,1.99-9.01.17-82.83c1.15-3.94,18.09-11.38,22.71-14.29,27.53-17.38,49.89-47.07,58.37-78.63,1.14-4.24,5.33-22,3.28-24.85l-10.02-1.98H116.45l-10.46,1.04c.3,43.21,28.95,84.52,65.09,106.42,4.92,2.98,17.89,7.34,19.47,12.53l1.45,92.05h0Z"/>
  <path class="st0" d="M481,236v1c-1.71,2.21-1.66,7.98,0,10v1c-2.86,3.27-3.31,7.92-5.48,12.02-4.25,8.02-13.3,16.33-22.52,17.98,0-.3-.81-4.85-1-6-.48-2.95-.53-3.37-2-6-1.06-1.9-.78-3.32-4-4,13.21-4.24,20.65-19.57,11.99-31.49-5.01-6.9-11.38-8.01-19.45-8.55-64.16-4.32-133.25,3.23-197.93.17-22.3,2.31-21.9,20.84-19.62,38.88-6.65-.04-13.35-.05-20,0,1.66-10.69-.21-21.85,3.27-32.23,3.72-11.05,16.38-22.49,28.22-23.78l217.9.12c10.1,1.21,20.46,10.22,25.13,18.87,2.18,4.05,2.82,8.46,5.48,12.02h0Z"/>
  <path d="M141,48c-1.58-4.29,4.41-3.67,5.56-2.06,1.24,1.73,1.34,6.45-2.56,5.06l-.97-2.53c-.6-.5-1.45-.29-2.03-.47Z"/>
  <path d="M144,258c4.29-1.58,3.67,4.41,2.06,5.56-1.73,1.24-6.45,1.34-5.06-2.56.79-.25,1.9.05,2.53-.97l.47-2.03Z"/>
  <path d="M450,266c1.47,2.63,1.52,3.05,2,6-3.38-.27-4.43-2.84-4-6h2Z"/>
  <path class="st0" d="M93.76,89.19c4.99-.94,9.65,2.06,10.26,7.29s.84,28.02-.23,32.8c-1.6,7.18-13.32,7.84-16.03,1.46-1.25-2.93-1.37-30.91-.69-35.18.53-3.37,3.41-5.75,6.69-6.37Z"/>
</svg>