<?xml version="1.0" encoding="UTF-8"?>
<svg id="_Слой_1" xmlns="http://www.w3.org/2000/svg" version="1.1" viewBox="0 0 640 640">
  <!-- Generator: Adobe Illustrator 30.0.0, SVG Export Plug-In . SVG Version: 2.1.1 Build 123)  -->
  <defs>
    <style>
      .st0 {
        fill: #ffe600;
      }
    </style>
  </defs>
  <path d="M508,331c14.48.28,28.39-.91,36.84,13.66,10.37,17.88,1.61,34.95-14.69,44-1.01,18.84.8,38.09-.12,56.88-.43,8.76-1.51,19.64-3.99,28.01-8.23,27.73-38.42,53.88-68.06,55.46.9,7.91.26,20.51-10.47,20.07-1.71-.07-6.35-2.19-7.22-3.38-2.29-3.15.08-15.7-3.8-15.7h-234.5c-2.25,6.49,1.69,15.82-6.94,18.55-11.8,3.73-14.08-9.67-13.19-18.42-9.47-2.63-18.69-4.42-27.54-8.96-14.02-7.2-30.18-23.96-36.82-38.18-12.8-27.42-5.03-64.57-7.95-94.08l-.82-1.66c-15.09-7.67-21.44-20.96-15.92-37.93,2.73-8.4,12.04-16.02,20.62-17.82,3.85-.81,20.98.45,21.59-2.17l.47-203.88c3.79-15.92,19.61-32.15,36.2-34.19,13.16-1.61,46.57-1.61,58.27,3.26,20.03,8.33,30.14,29.24,28.07,50.43,22.29.15,39.67,16.63,39.38,39.12,1.13,1.59,11.67.14,13.36,7.65,1.54,6.84-2.46,11.82-9.29,12.28l-110.47-.57c-10.94-6.86-5.86-19.55,6.83-18.56,1.88-23.51,16.16-39.28,40.09-39.91,2.54-19.27-6.54-33.42-26.41-34.99-21.45-1.69-53.42-3.81-57.54,23.53v157.5h18.5c1.36,0,6.93,2.76,7.95,4.05,5.01,6.36-.1,15.95-7.95,15.95h-18.5v18.5l3.45,1.55c53.85-.07,107.71-.09,161.55-.05h20c49.31.03,98.69-.38,148,0,6.98.05,14.02-.14,21,0h.02ZM219,185h56.5c.19,0,2.44-1.03,2.56-1.7-.14-7.04-4.36-15.28-11.33-17.54-4.26-1.38-31.21-1.45-35.76-.29-8.08,2.05-13.84,11.28-11.97,19.53h0ZM119.74,350.24c-11.14,2.19-13.04,14.18-2.79,19.32h406.11c9.01-4.57,9.13-16.18-1.24-18.87l-402.07-.45h-.01ZM130,390v67.5c0,22.35,30.01,51.75,52.62,52.38h273.76c23.82-3.17,44.64-20.74,51.11-43.89,3.99-14.26,4.07-55.94,2.57-71.55-.16-1.69.09-3.32-1.46-4.54l-373.14-.95-5.45,1.05h0Z"/>
  <path class="st0" d="M319,331c.22-16.39,17.9-34.29,33.74-36.76,5.06-.79,10.25.5,15.27-.73,7.05-11.33,13.36-22.21,25.79-28.22,22.82-11.03,47.42-5.27,63.73,13.68,1.64,1.91,3.85,7.32,5.16,8.09,2.29,1.34,10.76,2.1,14.99,3.76,16.59,6.5,28.18,22.59,30.32,40.18-6.98-.14-14.02.05-21,0,1.36-11.02-11.05-21.77-20.95-23.55-6.5-1.16-12.82,1.5-17.51-4.49-1.9-2.43-2.21-5.8-3.7-8.31-10.45-17.68-35.88-21.1-50.49-6.3-5.47,5.54-8.41,20.61-12.1,22.6-7.03,3.79-15.24,1.18-22.75,2.04-8.51.97-19.89,8.68-20.5,18h-20,0Z"/>
  <path class="st0" d="M274.69,302.69c-3.33,3.11-10.02,3.25-13.34-.03-5.08-5.01-5.04-26.49,2.05-28.82,17.29-5.67,17.59,22.97,11.29,28.85Z"/>
  <path class="st0" d="M295.5,224.58c1.72,2.1,1.3,2.58,1.49,5.86.62,10.68,1.76,25.78-13.96,20.99-6.34-1.93-5.6-15.43-5.04-20.93,1.08-10.54,10.57-14.39,17.51-5.92Z"/>
  <path class="st0" d="M232.76,273.35c.2.1,2.95,3.09,3.07,3.29,3.88,6.33,4.66,26.84-5.4,28.33-13.32,1.96-12.83-15.12-11.19-24.23,1.09-6.04,8.13-9.93,13.52-7.39h0Z"/>
  <path class="st0" d="M216.5,224.58c.32.39,1.07.37,1.25.92.7,2.1.55,18.17-.03,20.76-1.44,6.44-12.71,7.94-16.75,2.27-2.6-3.65-2.45-13.48-1.99-18.02,1.09-10.54,10.56-14.39,17.51-5.92h.01Z"/>
  <path class="st0" d="M242.35,250.6c-4.36-2.29-4.16-19.37-3.14-23.89,1.41-6.28,9.15-8.2,14.29-4.71,8.33,5.67,7.43,38.37-11.15,28.6Z"/>
</svg>