<?xml version="1.0" encoding="UTF-8"?>
<svg id="_Слой_1" data-name="Слой_1" xmlns="http://www.w3.org/2000/svg" version="1.1" viewBox="0 0 500 500">
  <!-- Generator: Adobe Illustrator 30.0.0, SVG Export Plug-In . SVG Version: 2.1.1 Build 123)  -->
  <defs>
    <style>
      .st0 {
        fill: #004e7f;
      }
    </style>
  </defs>
  <path class="st0" d="M112.04,378.61c-15.07,0-29.25-3.08-42.53-9.24-13.29-6.16-25.01-15.01-35.16-26.55-10.15-11.53-18.05-25.17-23.7-40.9-5.65-15.73-8.48-33.17-8.48-52.31,0-18.09,2.77-35.4,8.32-51.92,5.54-16.52,13.5-31.2,23.86-44.05,10.36-12.84,22.86-23.01,37.51-30.48,14.65-7.47,30.86-11.21,48.65-11.21,4.39,0,9.47.39,15.22,1.18,5.75.79,11.66,1.84,17.73,3.15,6.07,1.31,11.77,2.82,17.11,4.52,5.34,1.71,9.68,3.48,13.03,5.31,1.88.79,3.34,1.91,4.39,3.34,1.04,1.44,1.67,3.48,1.88,6.1,1.04,9.18,1.93,17.83,2.67,25.96.73,8.13,1.1,14.95,1.1,20.45,0,2.62-.47,4.59-1.41,5.9-.94,1.31-2.25,1.97-3.92,1.97-2.51,0-4.35-.79-5.49-2.36-1.15-1.57-2.15-3.54-2.98-5.9-1.88-4.98-4.03-10.16-6.44-15.54-2.41-5.37-5.29-10.29-8.63-14.75-2.51-3.15-5.49-6.16-8.95-9.05-3.45-2.88-7.69-5.24-12.71-7.08-5.02-1.83-11.09-2.75-18.21-2.75-11.3,0-21.34,2.89-30.13,8.65-8.79,5.77-16.17,13.7-22.13,23.79-5.96,10.1-10.47,21.5-13.5,34.22-3.04,12.72-4.55,26.15-4.55,40.31,0,17.57,1.36,33.63,4.08,48.18,2.72,14.55,6.69,27.08,11.93,37.56,5.23,10.49,11.72,18.55,19.46,24.19,7.74,5.64,16.74,8.46,27,8.46,5.44,0,9.89-1.18,13.34-3.54,3.45-2.36,6.22-4.46,8.32-6.29,2.09-2.1,3.82-5.44,5.18-10.03,1.36-4.58,2.04-9.76,2.04-15.54.21-2.36.31-5.64.31-9.83s.05-8.39.16-12.58c.1-4.19.16-7.47.16-9.83,0-2.88-.47-5.57-1.41-8.06-.94-2.49-2.78-4.39-5.49-5.7-1.88-1.57-4.03-2.88-6.43-3.93-2.41-1.04-4.82-1.9-7.22-2.56-2.41-.65-4.55-1.24-6.43-1.77-1.68-.26-3.35-1.18-5.02-2.75-1.68-1.57-2.51-3.54-2.51-5.9,0-1.83.73-3.28,2.2-4.33,1.46-1.04,2.93-1.57,4.39-1.57,4.81,0,10.09.14,15.85.39,5.75.26,11.46.59,17.11.98,5.65.39,10.67.59,15.07.59,6.07,0,12.5-.26,19.3-.79,6.8-.52,13.34-.79,19.62-.79,1.46,0,2.72.46,3.77,1.38,1.04.92,1.57,2.43,1.57,4.52,0,2.62-.58,4.52-1.73,5.7-1.15,1.18-2.67,2.03-4.55,2.56-5.86,1.84-9.84,4.2-11.93,7.08-2.09,2.89-3.56,6.95-4.39,12.19-.84,5.77-1.41,10.82-1.73,15.14-.31,4.33-.47,9.11-.47,14.35v12.59c0,1.32.42,2.62,1.26,3.93.83,1.32,1.78,2.62,2.83,3.93.83,1.31,1.57,2.62,2.2,3.93.63,1.32.94,2.75.94,4.33s-.42,3.21-1.26,4.92c-.84,1.71-2.41,2.82-4.71,3.34-1.68.26-4.61,1.64-8.79,4.13-4.19,2.49-9.42,5.38-15.69,8.65-6.28,3.28-13.71,6.1-22.29,8.46-8.58,2.36-18.1,3.54-28.56,3.54Z"/>
  <path class="st0" d="M232.58,374.29c-2.51,0-4.39-.46-5.65-1.38-1.26-.92-1.88-2.29-1.88-4.13,0-2.36.89-3.87,2.67-4.52,1.78-.65,3.82-1.5,6.12-2.56,4.81-2.1,9.05-5.76,12.71-11.01,3.66-5.24,5.91-11.93,6.75-20.06,1.26-12.06,2.56-26.94,3.92-44.64,1.36-17.7,2.77-36.64,4.24-56.83,1.46-20.19,2.72-40.12,3.77-59.78.21-1.57.31-3.54.31-5.9v-7.47c0-4.72-.58-8.46-1.73-11.21-1.15-2.75-3.09-5.05-5.81-6.88-2.51-2.1-5.23-3.87-8.16-5.31-2.93-1.44-6.07-2.69-9.42-3.74-2.51-.79-4.5-1.83-5.96-3.15-1.47-1.31-2.2-3.01-2.2-5.11,0-2.36.83-3.93,2.51-4.72,1.67-.79,3.66-1.18,5.96-1.18,3.14,0,7.01.14,11.61.39,4.6.26,9.68.46,15.22.59,5.54.14,11.19.33,16.95.59,5.75.26,11.04.39,15.85.39,1.67,0,3.24.73,4.71,2.16,1.46,1.44,2.4,3.08,2.82,4.92,1.46,4.98,2.83,9.77,4.08,14.36,1.26,4.59,2.61,9.38,4.08,14.36l46.14,138.05c.42,1.05.99,1.64,1.73,1.77.73.14,1.3-.45,1.73-1.77l44.89-130.58c1.46-9.17,2.67-16.65,3.61-22.42.94-5.76,1.83-10.35,2.67-13.77.83-3.4,2.51-5.11,5.02-5.11h13.5c8.79-.52,17.94-1.38,27.47-2.56,9.52-1.18,17-1.77,22.44-1.77,2.09,0,3.92.46,5.49,1.38,1.57.92,2.36,2.43,2.36,4.52,0,2.36-.68,4.07-2.04,5.11-1.36,1.05-3.09,1.97-5.18,2.75-1.26.53-2.72,1.25-4.39,2.16-1.68.92-3.14,1.77-4.39,2.56-5.44,3.15-9.47,6.75-12.08,10.82-2.62,4.07-3.72,10.56-3.3,19.47.42,18.88.94,35.4,1.57,49.56.63,14.16,1.2,27.27,1.73,39.33.52,12.06,1.15,24.58,1.88,37.56.73,12.98,1.52,28.12,2.35,45.43.42,6.82,2.67,12.26,6.75,16.32,4.08,4.07,9.46,7.15,16.16,9.24,2.09.79,3.87,1.71,5.34,2.75,1.46,1.05,2.2,2.75,2.2,5.11,0,1.84-.63,3.28-1.88,4.33s-2.82,1.57-4.71,1.57c-4.61,0-9.89-.2-15.85-.59-5.96-.39-11.83-.72-17.58-.98-5.76-.26-10.73-.39-14.91-.39s-8.84.13-13.97.39c-5.13.26-10.31.59-15.54.98-5.23.39-10.26.59-15.07.59-1.88,0-3.56-.46-5.02-1.38-1.47-.92-2.2-2.29-2.2-4.13,0-2.36.73-4.19,2.2-5.51,1.46-1.31,3.24-2.22,5.34-2.75,7.74-1.83,13.08-4.52,16.01-8.06,2.93-3.54,4.29-9.37,4.08-17.5-.63-16.25-1.15-32.45-1.57-48.57-.42-16.12-.79-31.99-1.1-47.59-.31-15.6-.79-30.74-1.41-45.43,0-1.83-.37-2.69-1.1-2.56-.74.14-1.41,1.12-2.04,2.95l-59.95,178.56c-1.05,3.67-2.62,5.24-4.71,4.72-2.09-.53-3.56-1.84-4.39-3.93-10.26-30.41-20.98-60.43-32.17-90.07-11.2-29.63-21.5-59-30.92-88.1-.63-2.36-1.62-3.21-2.98-2.56-1.36.66-2.15,2.43-2.35,5.31-.63,13.11-1.15,27.47-1.57,43.07-.42,15.6-.63,31.33-.63,47.2v44.25c0,7.34,1.88,13.31,5.65,17.9,3.77,4.59,9.73,8.06,17.89,10.42,2.09.53,4.08,1.38,5.96,2.56,1.88,1.18,2.82,2.95,2.82,5.31,0,1.84-.84,3.28-2.51,4.33-1.68,1.04-3.45,1.57-5.34,1.57-5.65,0-10.04-.2-13.18-.59s-5.96-.65-8.47-.79c-2.51-.13-5.96-.2-10.36-.2s-9.31.14-14.13.39c-4.81.26-9,.52-12.55.79-3.56.26-5.86.39-6.91.39Z"/>
</svg>